<svg width="480" height="175" viewBox="0 0 480 175" fill="none" xmlns="http://www.w3.org/2000/svg">
<path d="M186.7 128.325V48.025H218C224.6 48.025 230 48.325 234.2 49.025C238.4 49.725 241.6 50.825 244 52.425C246.4 54.025 248.1 56.225 249.1 59.125C250.1 61.925 250.8 65.525 251.1 69.725C251.4 73.925 251.5 85.225 251.5 91.125C251.5 97.125 251.4 102.225 251.1 106.425C250.8 110.625 250.1 114.225 249.1 117.025C248.1 119.825 246.4 122.125 244 123.725C241.6 125.325 238.4 126.525 234.2 127.125C230 127.825 224.6 128.125 218 128.125H186.7V128.325ZM205.5 113.825H217.7C220.6 113.825 223.1 113.725 224.9 113.525C226.8 113.325 228.3 112.925 229.4 112.225C230.5 111.525 231.3 110.425 231.8 108.825C232.3 107.225 232.6 105.025 232.7 102.125C232.8 99.325 232.9 95.625 232.9 91.225C232.9 86.725 232.8 77.025 232.7 74.125C232.6 71.325 232.3 69.025 231.8 67.425C231.3 65.825 230.5 64.625 229.4 63.925C228.3 63.225 226.8 62.825 225 62.625C223.1 62.525 220.7 62.425 217.8 62.425H205.6V113.825H205.5Z" fill="#0073BE"/>
<path d="M262.9 60.625V53.325C262.9 50.525 265.2 48.225 268 48.225H275.7C278.5 48.225 280.8 50.525 280.8 53.325V60.625C280.8 63.425 278.5 65.725 275.7 65.725H268C265.2 65.725 262.9 63.425 262.9 60.625ZM263.1 128.325V73.325H280.6V128.325H263.1Z" fill="#0073BE"/>
<path d="M305.3 128.325L288.7 73.325H306.4L316.6 112.925H317.7L327.6 73.325H345L328.5 128.325H305.3Z" fill="#0073BE"/>
<path d="M353 60.625V53.325C353 50.525 355.3 48.225 358.1 48.225H365.8C368.6 48.225 370.9 50.525 370.9 53.325V60.625C370.9 63.425 368.6 65.725 365.8 65.725H358.1C355.3 65.725 353 63.425 353 60.625ZM353.2 128.325V73.325H370.7V128.325H353.2Z" fill="#0073BE"/>
<path d="M389.7 128.325V86.525H379.6V73.325H389.7V69.525C389.7 65.325 390 61.925 390.5 59.325C391 56.725 391.9 54.625 393.2 53.125C394.5 51.625 396.3 50.525 398.6 49.825C400.9 49.125 403.9 48.725 407.4 48.525C411 48.325 415.2 48.225 420.2 48.225V60.125C417.3 60.125 414.9 60.225 413.1 60.325C411.3 60.425 410 60.725 409.2 61.225C408.3 61.725 407.8 62.425 407.5 63.225C407.2 64.125 407.1 65.425 407.1 67.025V73.125H420.1V86.225H407.1V128.025H389.7V128.325Z" fill="#0073BE"/>
<path d="M452.7 150.525C450.5 150.525 448.2 150.425 445.8 150.325C443.4 150.225 441.2 150.025 439.1 149.825C437 149.625 435.1 149.425 433.5 149.225V137.225C435.7 137.225 437.7 137.225 439.5 137.325C441.3 137.325 442.9 137.425 444.4 137.425C445.9 137.425 447.3 137.425 448.6 137.425C452 137.425 454.6 137.325 456.6 137.025C458.5 136.725 459.9 136.225 460.8 135.425C461.7 134.625 462.2 133.425 462.4 131.825C462.6 130.225 462.7 128.125 462.7 125.525V121.125H461.8C460.8 122.825 459.5 124.225 458 125.225C456.5 126.225 454.7 127.025 452.8 127.525C450.8 128.025 448.6 128.225 446.3 128.225C442.6 128.225 439.7 127.825 437.5 126.925C435.3 126.025 433.6 124.625 432.4 122.825C431.2 121.025 430.5 118.725 430.1 116.125C429.7 113.525 429.6 110.425 429.6 106.925V73.325H446.8V101.425C446.8 104.325 446.9 106.725 447.1 108.425C447.3 110.125 447.6 111.325 448.1 112.125C448.6 112.925 449.4 113.425 450.4 113.625C451.4 113.825 452.8 113.925 454.5 113.925C456.4 113.925 457.9 113.725 459 113.325C460.1 112.925 460.9 112.225 461.4 111.325C461.9 110.325 462.2 109.025 462.4 107.325C462.6 105.625 462.7 103.525 462.7 101.025V73.325H480V122.125C480 126.925 479.7 131.125 479.2 134.725C478.7 138.325 477.6 141.225 475.9 143.525C474.2 145.825 471.5 147.625 467.8 148.725C464.1 149.925 459.1 150.525 452.7 150.525Z" fill="#0073BE"/>
<path d="M148.9 39.725L82.6 1.425C79.3 -0.475 75.1 -0.475 71.8 1.425L5.4 39.725C2.1 41.625 0 45.225 0 49.125V125.725C0 129.625 2.1 133.125 5.4 135.125L71.8 173.425C75.1 175.325 79.3 175.325 82.6 173.425L149 135.125C152.3 133.225 154.4 129.625 154.4 125.725V49.125C154.4 45.225 152.3 41.725 148.9 39.725Z" fill="#0073BE"/>
<path d="M102.2 26.225L79.6 13.125C78 12.225 76.1 12.225 74.5 13.125L51.9 26.225C49.5 27.625 48.1 30.125 48.1 32.825V57.425C48.1 60.125 49.6 62.725 51.9 64.025L73.2 76.325C75.6 77.725 78.5 77.725 80.9 76.325L102.2 64.025C104.6 62.625 106 60.125 106 57.425V32.825C106 30.125 104.6 27.525 102.2 26.225Z" fill="#CCE3F2"/>
<path d="M100.7 31.925L79 44.525C77.8 45.225 77.1 46.425 77.1 47.825V70.825C77.1 73.725 80.3 75.625 82.8 74.125L102.8 62.625C104 61.925 104.7 60.725 104.7 59.325V34.225C104.7 32.225 102.5 30.925 100.7 31.925Z" fill="#80B8DF"/>
<path d="M75.1 14.225L52.8 27.125C51 28.125 51 30.725 52.8 31.725L75.1 44.625C76.3 45.325 77.8 45.325 79 44.625L101.3 31.725C103.1 30.725 103.1 28.125 101.3 27.125L79 14.225C77.8 13.525 76.3 13.525 75.1 14.225Z" fill="white"/>
<path d="M53.4 31.925L75.2 44.525C76.4 45.225 77.1 46.425 77.1 47.825V70.825C77.1 73.725 73.9 75.625 71.4 74.125L51.4 62.625C50.2 61.925 49.5 60.725 49.5 59.325V34.225C49.5 32.225 51.7 30.925 53.4 31.925Z" fill="#348ECD"/>
<path d="M139.4 46.825L116.8 33.725C115.2 32.825 113.3 32.825 111.7 33.725L89.1 46.825C86.7 48.225 85.3 50.725 85.3 53.425V78.025C85.3 80.725 86.8 83.325 89.1 84.625L110.4 96.925C112.8 98.325 115.7 98.325 118.1 96.925L139.4 84.625C141.8 83.225 143.2 80.725 143.2 78.025V53.425C143.2 50.725 141.8 48.225 139.4 46.825Z" fill="#CCE3F2"/>
<path d="M137.9 52.525L116.2 65.025C115 65.725 114.3 66.925 114.3 68.325V93.425C114.3 95.425 116.5 96.725 118.3 95.725L140 83.225C141.2 82.525 141.9 81.325 141.9 79.925V54.825C141.9 52.725 139.7 51.525 137.9 52.525Z" fill="#80B8DF"/>
<path d="M112.3 34.825L90.1 47.625C88.3 48.625 88.3 51.225 90.1 52.225L112.3 65.025C113.5 65.725 115 65.725 116.2 65.025L138.4 52.225C140.2 51.225 140.2 48.625 138.4 47.625L116.2 34.825C115 34.125 113.5 34.125 112.3 34.825Z" fill="white"/>
<path d="M90.6 52.525L112.3 65.125C113.5 65.825 114.2 67.025 114.2 68.425V93.425C114.2 95.425 112 96.725 110.2 95.725L88.5 83.125C87.3 82.425 86.6 81.225 86.6 79.825V54.825C86.7 52.825 88.9 51.525 90.6 52.525Z" fill="#348ECD"/>
<path d="M65.1 88.425L43.8 76.125C41.4 74.725 38.5 74.725 36.1 76.125L14.7 88.425C12.3 89.825 10.9 92.325 10.9 95.025V119.625C10.9 122.325 12.4 124.925 14.7 126.225L36 138.525C38.4 139.925 41.3 139.925 43.7 138.525L65 126.225C67.4 124.825 68.8 122.325 68.8 119.625V95.025C68.9 92.325 67.4 89.825 65.1 88.425Z" fill="#CCE3F2"/>
<path d="M61.8 94.925L41.8 106.425C40.6 107.125 39.9 108.325 39.9 109.725V134.825C39.9 136.825 42.1 138.125 43.9 137.125L65.6 124.625C66.8 123.925 67.5 122.725 67.5 121.325V98.325C67.6 95.325 64.4 93.425 61.8 94.925Z" fill="#80B8DF"/>
<path d="M38 76.725L16.2 89.325C14.4 90.325 14.4 92.925 16.2 93.925L38 106.525C39.2 107.225 40.7 107.225 41.8 106.525L61.8 94.925C64.4 93.425 64.4 89.725 61.8 88.225L41.8 76.625C40.7 76.025 39.2 76.025 38 76.725Z" fill="#348ECD"/>
<path d="M18.1 94.925L38.1 106.425C39.3 107.125 40 108.325 40 109.725V132.725C40 135.625 36.8 137.525 34.3 136.025L14.3 124.525C13.1 123.825 12.4 122.625 12.4 121.225V98.225C12.3 95.325 15.5 93.425 18.1 94.925Z" fill="#CCE3F2"/>
<path d="M65.1 46.225L43.8 33.925C41.4 32.525 38.5 32.525 36.1 33.925L14.7 46.225C12.3 47.625 10.9 50.125 10.9 52.825V77.425C10.9 80.125 12.4 82.725 14.7 84.025L36 96.325C38.4 97.725 41.3 97.725 43.7 96.325L65 84.025C67.4 82.625 68.8 80.125 68.8 77.425V52.925C68.9 50.125 67.4 47.625 65.1 46.225Z" fill="#CCE3F2"/>
<path d="M63.6 52.025L41.9 64.525C40.7 65.225 40 66.425 40 67.825V92.925C40 94.925 42.2 96.225 44 95.225L65.7 82.725C66.9 82.025 67.6 80.825 67.6 79.425V54.325C67.6 52.325 65.4 51.025 63.6 52.025Z" fill="#80B8DF"/>
<path d="M38 34.225L15.7 47.125C13.9 48.125 13.9 50.625 15.7 51.725L38 64.525C39.2 65.225 40.7 65.225 41.9 64.525L64.2 51.625C66 50.625 66 48.125 64.2 47.025L41.9 34.125C40.7 33.525 39.2 33.525 38 34.225Z" fill="white"/>
<path d="M16.3 52.025L38 64.625C39.2 65.325 39.9 66.525 39.9 67.925V93.025C39.9 95.025 37.7 96.325 35.9 95.325L14.2 82.725C13 82.025 12.3 80.825 12.3 79.425V54.325C12.3 52.325 14.5 51.025 16.3 52.025Z" fill="#CCE3F2"/>
<path d="M102.3 109.525L81 97.225C78.6 95.825 75.7 95.825 73.3 97.225L52 109.525C49.6 110.925 48.2 113.425 48.2 116.125V140.725C48.2 143.425 49.7 146.025 52 147.325L73.3 159.625C75.7 161.025 78.6 161.025 81 159.625L102.3 147.325C104.7 145.925 106.1 143.425 106.1 140.725V116.125C106.1 113.425 104.7 110.925 102.3 109.525Z" fill="#CCE3F2"/>
<path d="M100.8 115.025L79.1 127.525C77.9 128.225 77.2 129.425 77.2 130.825V155.925C77.2 157.925 79.4 159.225 81.2 158.225L102.9 145.725C104.1 145.025 104.8 143.825 104.8 142.425V117.325C104.8 115.325 102.6 114.025 100.8 115.025Z" fill="#80B8DF"/>
<path d="M75.3 97.725L53.4 110.325C51.6 111.325 51.6 113.925 53.4 114.925L75.3 127.525C76.5 128.225 77.9 128.225 79.1 127.525L101 114.925C102.8 113.925 102.8 111.325 101 110.325L79.1 97.725C77.9 97.025 76.4 97.025 75.3 97.725Z" fill="#348ECD"/>
<path d="M55.3 116.025L75.3 127.525C76.5 128.225 77.2 129.425 77.2 130.825V153.825C77.2 156.725 74 158.625 71.5 157.125L51.5 145.625C50.3 144.925 49.6 143.725 49.6 142.325V119.325C49.6 116.425 52.8 114.625 55.3 116.025Z" fill="#CCE3F2"/>
<path d="M102.3 67.725L79.7 54.625C78.1 53.725 76.2 53.725 74.6 54.625L52 67.725C49.6 69.125 48.2 71.625 48.2 74.325V98.925C48.2 101.625 49.7 104.225 52 105.525L73.3 117.825C75.7 119.225 78.6 119.225 81 117.825L102.3 105.525C104.7 104.125 106.1 101.625 106.1 98.925V74.325C106.1 71.625 104.7 69.025 102.3 67.725Z" fill="#CCE3F2"/>
<path d="M100.8 73.125L79.1 85.725C77.9 86.425 77.2 87.625 77.2 89.025V114.125C77.2 116.125 79.4 117.425 81.2 116.425L102.9 103.825C104.1 103.125 104.8 101.925 104.8 100.525V75.425C104.8 73.425 102.6 72.125 100.8 73.125Z" fill="#80B8DF"/>
<path d="M75.2 55.725L53.2 68.425C51.5 69.425 51.5 71.925 53.2 72.925L75.2 85.625C76.4 86.325 77.9 86.325 79.1 85.625L101.1 72.925C102.8 71.925 102.8 69.425 101.1 68.425L79.1 55.725C77.9 55.025 76.4 55.025 75.2 55.725Z" fill="white"/>
<path d="M55.3 74.225L75.3 85.725C76.5 86.425 77.2 87.625 77.2 89.025V112.025C77.2 114.925 74 116.825 71.5 115.325L51.5 103.825C50.3 103.125 49.6 101.925 49.6 100.525V77.525C49.6 74.525 52.8 72.725 55.3 74.225Z" fill="#CCE3F2"/>
</svg>
